<?xml version="1.0" encoding="utf-8"?>
<!-- Generator: Adobe Illustrator 15.0.0, SVG Export Plug-In . SVG Version: 6.00 Build 0)  -->
<!DOCTYPE svg PUBLIC "-//W3C//DTD SVG 1.1//EN" "http://www.w3.org/Graphics/SVG/1.1/DTD/svg11.dtd">
<svg version="1.1" id="Ebene_1" xmlns="http://www.w3.org/2000/svg" xmlns:xlink="http://www.w3.org/1999/xlink" x="0px" y="0px"
	 width="84.973px" height="98.784px" viewBox="0 0 84.973 98.784" enable-background="new 0 0 84.973 98.784" xml:space="preserve">
<g>
	<rect x="-892.252" y="-374.002" fill="none" stroke="#F03939" stroke-width="2" stroke-miterlimit="10" width="50" height="58"/>
	<polygon fill="none" stroke="#F03939" stroke-width="2" stroke-miterlimit="10" points="-880.252,-361.752 -880.252,-327.877 
		-842.252,-327.877 -842.252,-349.877 -842.252,-361.752 	"/>
	
		<line fill="none" stroke="#F03939" stroke-width="2" stroke-miterlimit="10" x1="-867.252" y1="-349.877" x2="-842.252" y2="-349.877"/>
	
		<line fill="none" stroke="#F03939" stroke-width="2" stroke-miterlimit="10" x1="-854.752" y1="-339.502" x2="-880.252" y2="-339.502"/>
</g>
<g>
	
		<rect x="-261.68" y="-571.035" fill="none" stroke="#F03939" stroke-width="2" stroke-miterlimit="10" width="82.388" height="95.568"/>
	<polygon fill="none" stroke="#F03939" stroke-width="2" stroke-miterlimit="10" points="-241.907,-550.851 -241.907,-495.033 
		-179.293,-495.033 -179.293,-531.283 -179.293,-550.851 	"/>
	
		<line fill="none" stroke="#F03939" stroke-width="2" stroke-miterlimit="10" x1="-220.486" y1="-531.283" x2="-179.293" y2="-531.283"/>
	
		<line fill="none" stroke="#F03939" stroke-width="2" stroke-miterlimit="10" x1="-199.891" y1="-514.188" x2="-241.907" y2="-514.188"/>
</g>
<rect x="-160.626" y="-507.717" fill="none" width="69.667" height="12.682"/>
<text transform="matrix(1 0 0 1 -160.6257 -495.9172)" font-family="'Lato-Regular'" font-size="16">Christoph</text>
<text transform="matrix(1 0 0 1 -160.6257 -475.467)" font-family="'Lato-Regular'" font-size="16">Sonntag</text>
<g>
	
		<rect x="-275.68" y="-389.035" fill="none" stroke="#F03939" stroke-width="2" stroke-miterlimit="10" width="82.388" height="95.568"/>
	<polygon fill="none" stroke="#F03939" stroke-width="2" stroke-miterlimit="10" points="-255.907,-368.85 -255.907,-313.033 
		-193.293,-313.033 -193.293,-349.283 -193.293,-368.85 	"/>
	
		<line fill="none" stroke="#F03939" stroke-width="2" stroke-miterlimit="10" x1="-234.486" y1="-349.283" x2="-193.293" y2="-349.283"/>
	
		<line fill="none" stroke="#F03939" stroke-width="2" stroke-miterlimit="10" x1="-213.891" y1="-332.188" x2="-255.907" y2="-332.188"/>
</g>
<rect x="-183.528" y="-306.151" fill="none" width="146.333" height="12.684"/>
<text transform="matrix(1 0 0 1 -183.5281 -295.6516)" font-family="'Roboto-Regular'" font-size="14">Christoph Sonntag</text>
<g>
	
		<rect x="-269.68" y="-147.035" fill="none" stroke="#F03939" stroke-width="2" stroke-miterlimit="10" width="82.388" height="95.568"/>
	<polygon fill="none" stroke="#F03939" stroke-width="2" stroke-miterlimit="10" points="-249.907,-126.85 -249.907,-71.033 
		-187.293,-71.033 -187.293,-107.283 -187.293,-126.85 	"/>
	
		<line fill="none" stroke="#F03939" stroke-width="2" stroke-miterlimit="10" x1="-228.486" y1="-107.283" x2="-187.293" y2="-107.283"/>
	
		<line fill="none" stroke="#F03939" stroke-width="2" stroke-miterlimit="10" x1="-207.891" y1="-90.188" x2="-249.907" y2="-90.188"/>
</g>
<rect x="-171.293" y="-147.038" fill="none" width="109.33" height="95.577"/>
<text transform="matrix(1 0 0 1 -171.2927 -136.7131)" font-family="'Lato-Regular'" font-size="14">Christoph</text>
<text transform="matrix(1 0 0 1 -171.2927 -119.9133)" font-family="'Lato-Regular'" font-size="14">Sonntag</text>
<text transform="matrix(1 0 0 1 -171.2927 -55.1135)" font-family="'Lato-Regular'" font-size="12">chrisonntag.com</text>
<g>
	
		<rect x="25.32" y="-147.035" fill="none" stroke="#F03939" stroke-width="2" stroke-miterlimit="10" width="82.388" height="95.568"/>
	<polygon fill="none" stroke="#F03939" stroke-width="2" stroke-miterlimit="10" points="45.093,-126.85 45.093,-71.033 
		107.707,-71.033 107.707,-107.283 107.707,-126.85 	"/>
	
		<line fill="none" stroke="#F03939" stroke-width="2" stroke-miterlimit="10" x1="66.514" y1="-107.283" x2="107.707" y2="-107.283"/>
	<line fill="none" stroke="#F03939" stroke-width="2" stroke-miterlimit="10" x1="87.109" y1="-90.188" x2="45.093" y2="-90.188"/>
</g>
<rect x="126.373" y="-105.242" fill="none" width="90.164" height="53.781"/>
<text transform="matrix(1 0 0 1 155.1018 -91.5071)" fill="#191919" font-family="'Lato-Medium'" font-size="7.5">Christoph Sonntag</text>
<text transform="matrix(1 0 0 1 160.2434 -83.7073)" fill="#191919" font-family="'Lato-Light'" font-size="6">Software Entwicklung</text>
<text transform="matrix(1 0 0 1 148.0178 -72.7073)" fill="#191919" font-family="'Lato-Light'" font-size="7.5">Ludwig-Thoma-Str. 8</text>
<text transform="matrix(1 0 0 1 148.5432 -63.7073)" fill="#191919" font-family="'Lato-Light'" font-size="7.5">93087 Alteglofsheim</text>
<text transform="matrix(1 0 0 1 144.6506 -52.7073)" fill="#191919" font-family="'Lato-Light'" font-size="7.5">info@chrisonntag.com</text>
<g>
	<rect x="1" y="1" fill="none" stroke="#F03939" stroke-width="2" stroke-miterlimit="10" width="82.387" height="95.566"/>
	<polygon fill="none" stroke="#F03939" stroke-width="2" stroke-miterlimit="10" points="20.773,21.184 20.773,77.002 
		83.386,77.002 83.386,40.752 83.386,21.184 	"/>
	<line fill="none" stroke="#F03939" stroke-width="2" stroke-miterlimit="10" x1="42.194" y1="40.752" x2="83.386" y2="40.752"/>
	<line fill="none" stroke="#F03939" stroke-width="2" stroke-miterlimit="10" x1="62.789" y1="57.846" x2="20.773" y2="57.846"/>
</g>
</svg>
